<?xml version="1.0" standalone="no"?>
<!DOCTYPE svg PUBLIC "-//W3C//DTD SVG 20010904//EN"
 "http://www.w3.org/TR/2001/REC-SVG-20010904/DTD/svg10.dtd">
<svg version="1.0" xmlns="http://www.w3.org/2000/svg"
 width="1280.000000pt" height="1280.000000pt" viewBox="0 0 1280.000000 1280.000000"
 preserveAspectRatio="xMidYMid meet">
<g transform="translate(0.000000,1280.000000) scale(0.100000,-0.100000)"
fill="#000000" stroke="none">
<path d="M5756 10941 c-215 -190 -1374 -1217 -2576 -2280 -1202 -1064 -2204
-1952 -2228 -1975 l-42 -42 266 -299 c146 -165 268 -301 272 -303 4 -1 1067
936 2362 2083 1295 1147 2360 2085 2368 2085 7 0 1071 -937 2364 -2082 1293
-1146 2354 -2084 2358 -2086 9 -4 532 586 534 602 0 7 -1175 1054 -2612 2326
-2206 1955 -2617 2315 -2643 2316 -28 2 -77 -39 -423 -345z"/>
<path d="M2480 9654 l0 -976 43 38 c23 21 315 284 648 585 l606 548 6 233 c4
128 7 304 7 391 l0 157 -655 0 -655 0 0 -976z"/>
<path d="M4323 7857 l-1843 -1632 0 -2370 c0 -2284 1 -2371 19 -2411 25 -55
83 -101 145 -114 35 -8 404 -10 1201 -8 l1150 3 5 1060 c5 979 6 1062 22 1091
24 44 90 99 137 112 28 9 304 12 1018 12 1054 0 1021 2 1092 -51 16 -12 42
-44 58 -73 l28 -51 3 -1053 2 -1052 1183 2 c1304 3 1204 -2 1271 65 66 65 61
-145 64 2460 l2 2362 -27 30 c-51 55 -3667 3251 -3677 3250 -6 0 -840 -734
-1853 -1632z"/>
</g>
</svg>
